<svg width="231" height="42" viewBox="0 0 231 42" fill="none" xmlns="http://www.w3.org/2000/svg">
<g clip-path="url(#clip0_71_306)">
<path d="M46.1395 33.6366C44.4961 32.7853 43.1217 31.4989 42.1683 29.9196C41.1915 28.2885 40.6907 26.4195 40.7217 24.5216C40.6921 22.6265 41.1929 20.7606 42.1683 19.1319C43.1209 17.5519 44.4955 16.2653 46.1395 15.4148C47.8999 14.5065 49.8601 14.0481 51.8434 14.0811C53.5594 14.0551 55.2618 14.3875 56.8404 15.0568C58.2855 15.6796 59.5546 16.6453 60.5366 17.8692L56.8982 21.1489C55.5872 19.5801 53.9986 18.7957 52.1321 18.7957C51.109 18.778 50.0988 19.0248 49.2004 19.5118C48.3531 19.9815 47.6606 20.6849 47.2066 21.537C46.7395 22.4713 46.4964 23.5003 46.4964 24.5435C46.4964 25.5867 46.7395 26.6157 47.2066 27.5499C47.6599 28.4019 48.3526 29.1046 49.2004 29.5724C50.098 30.0616 51.1086 30.3094 52.1321 30.2913C54.0004 30.2913 55.5891 29.5069 56.8982 27.938L60.5366 31.2178C59.5546 32.4417 58.2855 33.4074 56.8404 34.0302C55.2602 34.692 53.5578 35.017 51.8434 34.984C49.8591 35.0114 47.8991 34.5484 46.1395 33.6366Z" fill="#1D1D1B"></path>
<path d="M78.2422 28.1676H66.862C67.063 28.9292 67.5412 29.5895 68.2041 30.0207C68.9562 30.4736 69.8252 30.6978 70.704 30.6657C71.368 30.6798 72.0289 30.5723 72.6538 30.3487C73.2588 30.0998 73.8168 29.7504 74.3039 29.3156L77.1944 32.3001C75.6708 33.9856 73.4468 34.8283 70.5225 34.8283C68.8553 34.864 67.203 34.5101 65.6987 33.7952C64.3681 33.1641 63.2489 32.165 62.4752 30.9177C61.7016 29.6703 61.3064 28.2277 61.3369 26.7628C61.3081 25.3268 61.6854 23.9115 62.4258 22.678C63.1663 21.4444 64.2402 20.4422 65.5254 19.7851C66.8685 19.118 68.3472 18.7647 69.8486 18.7524C71.3501 18.7401 72.8345 19.069 74.1884 19.7141C75.4433 20.337 76.4929 21.3032 77.2136 22.4991C77.9748 23.8109 78.3555 25.3065 78.3137 26.8202C78.3274 26.8585 78.2999 27.3067 78.2422 28.1676ZM67.8576 23.3464C67.276 23.8495 66.8922 24.5407 66.774 25.2979H73.1874C73.0692 24.5407 72.6854 23.8495 72.1038 23.3464C71.4953 22.8805 70.7488 22.6279 69.9807 22.6279C69.2126 22.6279 68.466 22.8805 67.8576 23.3464Z" fill="#1D1D1B"></path>
<path d="M95.7579 20.4766C96.9423 21.6246 97.5345 23.3555 97.5345 25.6696V34.5687H92.048V26.5606C92.048 24.436 91.1908 23.3738 89.4766 23.3738C89.0546 23.3555 88.6336 23.4282 88.2425 23.5867C87.8513 23.7452 87.4993 23.9858 87.2104 24.2921C86.6402 24.908 86.3551 25.8299 86.3551 27.058V34.5769H80.8548V19.0117H86.0801V20.7062C86.701 20.0721 87.4511 19.5773 88.2802 19.2549C89.1647 18.9139 90.1065 18.7432 91.0552 18.752C93.0078 18.752 94.5754 19.3269 95.7579 20.4766Z" fill="#1D1D1B"></path>
<path d="M111.775 33.9373C111.252 34.249 110.68 34.4725 110.084 34.5987C109.387 34.7555 108.675 34.8326 107.96 34.8283C105.92 34.8283 104.351 34.3308 103.255 33.336C102.159 32.3411 101.608 30.8579 101.605 28.8864V23.6607H99.3222V19.5856H101.605V15.5378H107.105V19.5856H110.68V23.6607H107.105V28.8291C107.079 29.3058 107.239 29.7742 107.553 30.1355C107.707 30.2931 107.892 30.4169 108.097 30.4989C108.301 30.5808 108.521 30.619 108.741 30.6111C109.337 30.6224 109.922 30.4516 110.416 30.1218L111.775 33.9373Z" fill="#1D1D1B"></path>
<path d="M121.282 19.2849C122.264 18.9095 123.308 18.724 124.36 18.7383V23.658C123.947 23.6069 123.532 23.5786 123.117 23.5732C121.943 23.5732 121.026 23.8885 120.366 24.5189C119.706 25.1493 119.375 26.116 119.371 27.4187V34.5659H113.871V19.0116H119.096V20.8784C119.667 20.1612 120.422 19.6106 121.282 19.2849Z" fill="#1D1D1B"></path>
<path d="M142.39 28.1676H131.01C131.211 28.93 131.69 29.5906 132.354 30.0207C133.105 30.474 133.974 30.6982 134.852 30.6657C135.516 30.6798 136.176 30.5723 136.801 30.3487C137.406 30.0998 137.964 29.7504 138.451 29.3156L141.358 32.3001C139.837 33.9856 137.613 34.8283 134.687 34.8283C133.019 34.8637 131.367 34.5098 129.863 33.7951C128.553 33.154 127.448 32.1651 126.669 30.938C125.891 29.711 125.469 28.2936 125.451 26.843C125.433 25.3923 125.819 23.9651 126.568 22.7194C127.316 21.4736 128.396 20.4581 129.689 19.7851C131.033 19.1179 132.512 18.7647 134.014 18.7523C135.516 18.74 137.001 19.069 138.355 19.7141C139.61 20.3366 140.66 21.3029 141.38 22.4991C142.148 23.8088 142.534 25.305 142.494 26.8202C142.478 26.8585 142.458 27.3067 142.39 28.1676ZM132.008 23.3464C131.425 23.8487 131.041 24.5403 130.924 25.2978H137.335C137.218 24.5403 136.834 23.8487 136.251 23.3464C135.643 22.8803 134.897 22.6275 134.13 22.6275C133.362 22.6275 132.616 22.8803 132.008 23.3464Z" fill="#1D1D1B"></path>
<path d="M163.533 25.9647C164.201 26.8538 164.547 27.9413 164.515 29.0504C164.545 29.8555 164.363 30.6545 163.989 31.3689C163.614 32.0833 163.059 32.6887 162.378 33.1255C160.951 34.0821 158.891 34.5604 156.196 34.5604H145.277V14.4856H155.618C158.198 14.4856 160.161 14.9584 161.509 15.9041C162.145 16.3193 162.664 16.8882 163.018 17.5575C163.372 18.2268 163.549 18.9745 163.533 19.7305C163.548 20.6365 163.301 21.5279 162.823 22.2996C162.336 23.0727 161.641 23.6947 160.816 24.0953C161.889 24.4356 162.835 25.0866 163.533 25.9647ZM150.94 18.5853V22.4554H154.867C156.792 22.4554 157.755 21.8049 157.755 20.5039C157.755 19.203 156.792 18.5652 154.867 18.5908L150.94 18.5853ZM158.737 28.4246C158.737 27.0671 157.736 26.3875 155.734 26.3856H150.94V30.4607H155.734C157.736 30.4626 158.737 29.7838 158.737 28.4246Z" fill="#1D1D1B"></path>
<path d="M167.229 14.3434H172.71V34.5686H167.229V14.3434Z" fill="#1D1D1B"></path>
<path d="M179.586 33.7952C178.272 33.1481 177.17 32.1437 176.408 30.8988C175.646 29.6539 175.256 28.2197 175.282 26.7628C175.261 25.3123 175.654 23.8855 176.416 22.6481C177.177 21.4106 178.277 20.4132 179.586 19.7715C181.01 19.1002 182.566 18.752 184.143 18.752C185.719 18.752 187.276 19.1002 188.7 19.7715C189.997 20.4063 191.088 21.3914 191.849 22.6139C192.585 23.876 192.973 25.3092 192.973 26.7683C192.973 28.2274 192.585 29.6606 191.849 30.9226C191.091 32.155 190 33.1506 188.7 33.7952C187.281 34.4751 185.726 34.8282 184.151 34.8282C182.576 34.8282 181.021 34.4751 179.602 33.7952H179.586ZM186.489 29.5041C187.105 28.8427 187.413 27.9317 187.413 26.771C187.413 25.6103 187.106 24.7039 186.494 24.0516C186.183 23.7422 185.814 23.4969 185.407 23.3294C185.001 23.162 184.565 23.0759 184.125 23.0759C183.685 23.0759 183.249 23.162 182.843 23.3294C182.436 23.4969 182.067 23.7422 181.756 24.0516C181.14 24.702 180.832 25.6021 180.832 26.7519C180.832 27.9016 181.14 28.8127 181.756 29.485C182.064 29.7983 182.433 30.0472 182.84 30.2171C183.247 30.387 183.684 30.4745 184.125 30.4745C184.566 30.4745 185.003 30.387 185.41 30.2171C185.817 30.0472 186.185 29.7983 186.494 29.485L186.489 29.5041Z" fill="#1D1D1B"></path>
<path d="M198.853 33.7951C197.533 33.1531 196.42 32.1555 195.641 30.9159C194.863 29.6763 194.45 28.2445 194.45 26.7833C194.45 25.3221 194.863 23.8903 195.641 22.6507C196.42 21.4111 197.533 20.4135 198.853 19.7714C200.304 19.0736 201.9 18.7244 203.512 18.752C205.118 18.7111 206.705 19.103 208.105 19.8862C209.354 20.5929 210.324 21.7015 210.855 23.0293L206.609 25.183C205.897 23.7855 204.858 23.0867 203.49 23.0867C203.036 23.0712 202.584 23.1489 202.162 23.3149C201.74 23.4809 201.357 23.7317 201.037 24.0515C200.393 24.702 200.072 25.6021 200.072 26.7519C200.072 27.9016 200.393 28.8236 201.037 29.5178C201.353 29.8422 201.733 30.0977 202.153 30.268C202.574 30.4383 203.025 30.5198 203.479 30.5072C204.847 30.5072 205.886 29.8084 206.598 28.4109L210.844 30.5646C210.313 31.8924 209.343 33.001 208.094 33.7077C206.694 34.4909 205.107 34.8828 203.501 34.8419C201.89 34.8645 200.297 34.5057 198.853 33.7951Z" fill="#1D1D1B"></path>
<path d="M219.969 29.116L218.349 30.7559V34.5823H212.863V14.3571H218.363V24.4369L223.968 19.0116H230.464L223.954 25.6695L231.014 34.5686H224.358L219.969 29.116Z" fill="#1D1D1B"></path>
<path d="M8.85827 35.353C8.81483 35.3964 8.76319 35.4308 8.70632 35.4543C8.64945 35.4778 8.58846 35.4899 8.52688 35.4899C8.46529 35.4899 8.40431 35.4778 8.34744 35.4543C8.29056 35.4308 8.23892 35.3964 8.19548 35.353L1.30357 28.5038C0.469077 27.6718 0.000488281 26.545 0.000488281 25.3703C0.000488281 24.1955 0.469077 23.0687 1.30357 22.2367L8.19548 15.3875C8.23892 15.3441 8.29056 15.3097 8.34744 15.2862C8.40431 15.2627 8.46529 15.2506 8.52688 15.2506C8.58846 15.2506 8.64945 15.2627 8.70632 15.2862C8.76319 15.3097 8.81483 15.3441 8.85827 15.3875L13.176 19.6785C13.2635 19.7661 13.3126 19.8845 13.3126 20.0079C13.3126 20.1313 13.2635 20.2496 13.176 20.3372L8.10748 25.3689L13.176 30.4033C13.263 30.4917 13.3118 30.6104 13.3118 30.734C13.3118 30.8577 13.263 30.9764 13.176 31.0647L8.85827 35.353Z" fill="#6859A3"></path>
<path d="M14.7463 41.8634L10.4313 37.5751C10.3438 37.4875 10.2947 37.3691 10.2947 37.2457C10.2947 37.1223 10.3438 37.0039 10.4313 36.9164L22.0508 25.3689L10.6404 14.0319C10.5615 13.9532 10.4991 13.8598 10.4566 13.7571C10.4141 13.6544 10.3925 13.5444 10.3928 13.4333V0.185869C10.3928 -0.0737782 10.6019 0.0136819 10.8604 0.0136819H16.963C17.238 0.0136819 17.4333 -0.0737782 17.4333 0.185869V10.8861L28.7887 22.1712C29.617 22.9752 30.1083 24.061 30.1638 25.2104C30.1875 25.8191 30.084 26.4261 29.8596 26.993C29.6352 27.5599 29.2949 28.0743 28.8602 28.5038L15.4009 41.8634C15.3132 41.9478 15.1958 41.9951 15.0736 41.9951C14.9515 41.9951 14.8341 41.9478 14.7463 41.8634Z" fill="#6859A3"></path>
</g>
<defs>
<clipPath id="clip0_71_306">
<rect width="231" height="42" fill="white"></rect>
</clipPath>
</defs>
</svg>